<?xml version="1.0" standalone="no"?>
<!DOCTYPE svg PUBLIC "-//W3C//DTD SVG 20010904//EN"
 "http://www.w3.org/TR/2001/REC-SVG-20010904/DTD/svg10.dtd">
<svg version="1.0" xmlns="http://www.w3.org/2000/svg" viewBox="0 0 452.000000 276.000000"
 preserveAspectRatio="xMidYMid meet">

<g transform="translate(0.000000,276.000000) scale(0.100000,-0.100000)"
fill="#000000" stroke="none">
<path d="M1675 2151 c-126 -21 -249 -76 -358 -162 l-62 -49 -18 23 c-77 97
-152 123 -203 72 -28 -28 -26 -50 9 -96 18 -26 19 -34 8 -153 -15 -174 -14
-339 2 -379 28 -65 139 -145 242 -171 56 -14 91 -39 80 -56 -3 -4 -22 -11 -42
-15 -21 -4 -102 -27 -180 -51 -80 -25 -162 -44 -188 -44 -56 0 -85 -25 -85
-73 0 -71 82 -137 171 -137 35 0 40 -2 34 -17 -31 -74 -114 -323 -115 -343 0
-36 40 -110 73 -134 19 -14 44 -21 74 -21 37 0 49 5 69 28 14 16 30 49 36 73
7 24 15 44 19 44 3 0 18 -17 31 -38 43 -64 119 -142 159 -162 99 -51 232 0
290 112 35 68 39 114 27 268 -6 80 -8 171 -4 203 l7 57 39 0 c35 0 39 -3 53
-38 25 -62 46 -180 56 -315 10 -130 21 -165 64 -205 53 -50 157 -34 198 30 18
29 20 44 16 123 -6 108 -40 218 -97 318 l-39 68 37 -8 c103 -22 153 5 172 90
9 45 8 55 -12 96 -25 50 -93 103 -156 121 -67 19 -226 30 -325 22 -95 -7 -98
-7 -113 16 -9 13 -13 26 -10 30 4 3 44 8 90 10 61 3 97 0 132 -12 106 -36 212
-8 235 62 16 47 6 106 -25 146 l-25 34 29 53 c62 114 75 274 31 375 -26 57
-117 146 -186 179 -58 29 -156 39 -240 26z m135 -256 c22 -27 13 -81 -29 -171
-65 -137 -75 -148 -176 -172 -47 -12 -135 -42 -196 -68 -83 -36 -113 -44 -121
-36 -7 7 -14 59 -16 129 l-4 118 70 0 c62 0 78 5 154 43 47 24 116 70 157 107
63 55 80 65 111 65 21 0 43 -7 50 -15z m-426 -1056 c3 -34 6 -109 6 -165 l0
-104 -32 0 c-58 0 -110 19 -104 38 23 82 38 181 33 223 -6 45 -4 49 16 54 44
9 62 13 68 14 3 0 9 -27 13 -60z"/>
<path d="M3037 2125 c-106 -39 -152 -118 -112 -194 l14 -29 -76 -34 -76 -35
-31 46 c-53 78 -149 114 -204 75 -30 -21 -29 -68 4 -107 22 -26 25 -37 19 -76
-12 -95 -24 -248 -25 -310 0 -92 24 -135 102 -188 95 -64 164 -86 278 -86 l95
0 -115 -24 c-276 -57 -314 -63 -373 -63 -66 0 -87 -11 -87 -43 0 -40 35 -78
100 -110 62 -31 69 -32 185 -31 85 0 147 7 215 22 52 12 95 22 96 22 1 0 4 -7
8 -15 10 -28 -5 -43 -52 -50 -26 -3 -119 -22 -207 -41 -88 -20 -200 -38 -250
-41 -49 -3 -96 -10 -102 -16 -30 -23 -1 -97 48 -123 l31 -16 -27 -28 c-58 -61
-39 -147 54 -240 72 -72 138 -93 271 -87 58 3 157 13 220 23 90 14 180 18 410
18 274 1 304 -1 425 -24 72 -13 152 -25 179 -25 41 0 51 4 71 30 50 62 40 138
-26 204 -75 74 -208 105 -456 106 l-173 0 0 47 c0 44 2 47 31 53 47 11 200 -4
334 -31 118 -24 198 -30 230 -18 23 9 45 58 45 101 0 119 -109 160 -450 172
l-194 6 -7 32 -6 32 65 7 c90 9 244 -2 352 -26 103 -23 188 -26 214 -7 25 19
33 95 13 134 -9 17 -32 38 -52 47 -133 63 -503 77 -829 31 -60 -8 -111 -14
-112 -12 -6 6 280 67 386 83 123 18 191 15 287 -16 98 -32 131 -24 183 41 22
28 43 63 48 77 4 15 7 108 7 207 0 175 -1 181 -27 235 -50 103 -149 184 -267
220 -69 22 -224 27 -295 10 -35 -8 -43 -6 -76 21 -21 17 -59 37 -85 45 -60 18
-178 17 -228 -1z m617 -346 c5 -19 5 -88 1 -152 l-7 -117 -69 0 -69 0 0 40 c0
75 -44 137 -143 203 l-39 25 74 16 c107 23 117 24 183 22 l60 -1 9 -36z m-619
-152 c84 -54 208 -157 193 -161 -7 -2 -44 -12 -82 -20 -37 -9 -111 -30 -162
-47 -55 -17 -110 -29 -131 -27 -34 3 -38 6 -45 43 -5 22 -7 85 -6 140 l3 100
65 6 c85 8 106 4 165 -34z m38 -434 c-7 -2 -19 -2 -25 0 -7 3 -2 5 12 5 14 0
19 -2 13 -5z m-33 -557 c0 -38 7 -35 -115 -56 -72 -12 -139 -31 -219 -60 -87
-32 -137 -9 -101 46 24 37 63 51 160 58 50 3 124 15 165 25 108 27 110 27 110
-13z"/>
<path d="M625 2108 c-39 -21 -55 -51 -55 -106 0 -52 2 -55 55 -106 35 -33 55
-60 55 -75 0 -28 -47 -142 -149 -357 -45 -95 -88 -200 -98 -235 -28 -109 -2
-194 74 -242 71 -45 68 -33 68 -321 0 -245 1 -263 21 -296 11 -19 33 -42 50
-50 44 -21 132 -19 174 6 62 36 65 50 50 294 -10 171 -10 248 -1 380 9 119 9
183 2 230 -17 100 -14 134 25 285 22 88 37 176 41 236 5 90 4 100 -21 155 -33
71 -58 100 -102 114 -19 6 -43 25 -55 41 -36 51 -92 71 -134 47z"/>
</g>
</svg>
